SplineFontDB: 3.0
FontName: Orelega-Bold
FullName: Orelega Bold
FamilyName: Orelega
Weight: Bold
Copyright: Copyright (c) 2019 UkiyoMoji Fonts
UComments: "2019-10-17: Created with FontForge (http://fontforge.org)"
Version: 001.000
ItalicAngle: 0
UnderlinePosition: -160
UnderlineWidth: 160
Ascent: 3296
Descent: 800
InvalidEm: 0
LayerCount: 2
Layer: 0 0 "+gMyXYgAA" 1
Layer: 1 0 "+Uk2XYgAA" 0
XUID: [1021 734 -1507982095 5434]
StyleMap: 0x0020
FSType: 0
OS2Version: 0
OS2_WeightWidthSlopeOnly: 0
OS2_UseTypoMetrics: 1
CreationTime: 1571294646
ModificationTime: 1571297250
PfmFamily: 17
TTFWeight: 700
TTFWidth: 5
LineGap: 369
VLineGap: 0
OS2TypoAscent: 0
OS2TypoAOffset: 1
OS2TypoDescent: 0
OS2TypoDOffset: 1
OS2TypoLinegap: 369
OS2WinAscent: 0
OS2WinAOffset: 1
OS2WinDescent: 0
OS2WinDOffset: 1
HheadAscent: 0
HheadAOffset: 1
HheadDescent: 0
HheadDOffset: 1
OS2FamilyClass: 1025
OS2Vendor: 'Ukyo'
MarkAttachClasses: 1
DEI: 91125
LangName: 1033
Encoding: ISO8859-1
UnicodeInterp: none
NameList: AGL For New Fonts
DisplaySize: -72
AntiAlias: 0
FitToEm: 0
WinInfo: 0 13 10
BeginPrivate: 0
EndPrivate
Grid
2240 5344 m 0
 2240 -2848 l 1024
160 5344 m 4
 160 -2848 l 1028
EndSplineSet
TeXData: 1 0 0 346030 173015 115343 0 0 115343 783286 444596 497025 792723 393216 433062 380633 303038 157286 324010 404750 52429 2506097 1059062 262144
BeginChars: 256 33

StartChar: space
Encoding: 32 32 0
Width: 4096
VWidth: 0
Flags: H
LayerCount: 2
Fore
SplineSet
3440 620 m 0
 3584.76953125 619.825195312 3711.40429688 522.482421875 3748.9296875 382.71875 c 0
 3762.58886719 331.84375 3769.03808594 280.391601562 3769.03808594 228.887695312 c 0
 3769.03808594 -107.057617188 3494.66796875 -445.223632812 3157.3046875 -640 c 1
 3012.125 -494.8203125 l 1
 3309.12890625 -256.735351562 3401.80957031 -150.348632812 3405.5859375 -17.765625 c 1
 3243.26660156 -0.20703125 3120.19238281 136.733398438 3120 300 c 0
 3120 476.731445312 3263.26855469 620 3440 620 c 0
3120 1530 m 0
 3120 1706.73144531 3263.26855469 1850 3440 1850 c 0
 3616.73144531 1850 3760 1706.73144531 3760 1530 c 0
 3760 1353.26855469 3616.73144531 1210 3440 1210 c 0
 3263.26855469 1210 3120 1353.26855469 3120 1530 c 0
7830.96191406 2551.11230469 m 0
 7975.73144531 2550.9375 8102.36621094 2453.59472656 8139.89160156 2313.83105469 c 0
 8153.55078125 2262.95605469 8160 2211.50390625 8160 2160 c 0
 8160 1824.0546875 7885.62988281 1485.88867188 7548.26660156 1291.11230469 c 1
 7403.08691406 1436.29199219 l 1
 7700.09082031 1674.37695312 7792.77148438 1780.76367188 7796.54785156 1913.34667969 c 1
 7634.22851562 1930.90527344 7511.15429688 2067.84570312 7510.96191406 2231.11230469 c 0
 7510.96191406 2407.84375 7654.23046875 2551.11230469 7830.96191406 2551.11230469 c 0
8731.0703125 2551.11230469 m 0
 8875.83984375 2550.9375 9002.47460938 2453.59472656 9040 2313.83105469 c 0
 9053.65917969 2262.95605469 9060.10839844 2211.50390625 9060.10839844 2160 c 0
 9060.10839844 1824.0546875 8785.73828125 1485.88867188 8448.375 1291.11230469 c 1
 8303.1953125 1436.29199219 l 1
 8600.19921875 1674.37695312 8692.87988281 1780.76367188 8696.65625 1913.34667969 c 1
 8534.33691406 1930.90527344 8411.26269531 2067.84570312 8411.0703125 2231.11230469 c 0
 8411.0703125 2407.84375 8554.33886719 2551.11230469 8731.0703125 2551.11230469 c 0
8731.0703125 2551.11230469 m 0
 8875.83984375 2550.9375 9002.47460938 2453.59472656 9040 2313.83105469 c 0
 9053.65917969 2262.95605469 9060.10839844 2211.50390625 9060.10839844 2160 c 0
 9060.10839844 1824.0546875 8785.73828125 1485.88867188 8448.375 1291.11230469 c 1
 8303.1953125 1436.29199219 l 1
 8600.19921875 1674.37695312 8692.87988281 1780.76367188 8696.65625 1913.34667969 c 1
 8534.33691406 1930.90527344 8411.26269531 2067.84570312 8411.0703125 2231.11230469 c 0
 8411.0703125 2407.84375 8554.33886719 2551.11230469 8731.0703125 2551.11230469 c 0
6825.69433594 1291.11230469 m 0
 6680.92480469 1291.28710938 6554.29003906 1388.62988281 6516.76464844 1528.39355469 c 0
 6503.10546875 1579.26855469 6496.65625 1630.72070312 6496.65625 1682.22460938 c 0
 6496.65625 2018.16992188 6771.02636719 2356.3359375 7108.38964844 2551.11230469 c 1
 7253.56933594 2405.93261719 l 1
 6956.56542969 2167.84765625 6863.88476562 2061.4609375 6860.10839844 1928.87792969 c 1
 7022.42773438 1911.31933594 7145.50195312 1774.37890625 7145.69433594 1611.11230469 c 0
 7145.69433594 1434.38085938 7002.42578125 1291.11230469 6825.69433594 1291.11230469 c 0
5925.5859375 1291.11230469 m 0
 5780.81640625 1291.28710938 5654.18164062 1388.62988281 5616.65625 1528.39355469 c 0
 5602.99707031 1579.26855469 5596.54785156 1630.72070312 5596.54785156 1682.22460938 c 0
 5596.54785156 2018.16992188 5870.91796875 2356.3359375 6208.28125 2551.11230469 c 1
 6353.4609375 2405.93261719 l 1
 6056.45703125 2167.84765625 5963.77636719 2061.4609375 5960 1928.87792969 c 1
 6122.31933594 1911.31933594 6245.39355469 1774.37890625 6245.5859375 1611.11230469 c 0
 6245.5859375 1434.38085938 6102.31738281 1291.11230469 5925.5859375 1291.11230469 c 0
EndSplineSet
EndChar

StartChar: exclam
Encoding: 33 33 1
Width: 960
VWidth: 0
Flags: HW
LayerCount: 2
Fore
SplineSet
160 300 m 0
 160 476.73046875 303.268554688 620 480 620 c 0
 656.731445312 620 800 476.73046875 800 300 c 0
 800 123.268554688 656.731445312 -20 480 -20 c 0
 303.268554688 -20 160 123.268554688 160 300 c 0
480 2560 m 0
 656.731445312 2560 800 2416.73144531 800 2240 c 0
 800 1928.62988281 659.838867188 1303.12597656 563.6796875 960 c 1
 396.3203125 960 l 1
 300.161132812 1303.12597656 160 1928.62988281 160 2240 c 0
 160 2416.73144531 303.268554688 2560 480 2560 c 0
EndSplineSet
EndChar

StartChar: quotedbl
Encoding: 34 34 2
Width: 1640
VWidth: 0
Flags: HW
LayerCount: 2
Back
SplineSet
440 2560 m 4
 594.639648438 2560 720 2434.63964844 720 2280 c 4
 720 2007.55078125 640 1600 560 1280 c 5
 320 1280 l 5
 240 1600 160 2007.55078125 160 2280 c 4
 160 2434.63964844 285.360351562 2560 440 2560 c 4
1200 2560 m 0
 1354.63964844 2560 1480 2434.63964844 1480 2280 c 0
 1480 2007.55078125 1400 1600 1320 1280 c 1
 1080 1280 l 1
 1000 1600 920 2007.55078125 920 2280 c 0
 920 2434.63964844 1045.36035156 2560 1200 2560 c 0
EndSplineSet
Fore
Refer: 7 39 N 1 0 0 1 760 0 2
Refer: 7 39 N 1 0 0 1 0 0 2
EndChar

StartChar: numbersign
Encoding: 35 35 3
Width: 24185
VWidth: 0
Flags: HW
LayerCount: 2
Fore
SplineSet
10759.9960938 2480 m 1
 11159.9970703 2480 l 1
 10919.9980469 0 l 1
 10519.9970703 0 l 1
 10759.9960938 2480 l 1
11639.9960938 2480 m 1
 12039.9970703 2480 l 1
 11799.9980469 0 l 1
 11399.9980469 0 l 1
 11639.9960938 2480 l 1
12320 1960 m 1
 12320 1640 l 1
 10240 1640 l 1
 10240 1960 l 1
 12320 1960 l 1
12320 840 m 1
 12320 520 l 1
 10240 520 l 1
 10240 840 l 1
 12320 840 l 1
17600 2520 m 0
 17958.1162109 2520 18241.0283203 2417.20019531 18440 2240 c 0
 18605.5400391 2092.578125 18680 1960 18680 1720 c 1
 18200 1800 l 1
 18118.8759766 2108.02539062 17928.7197266 2200 17640 2200 c 0
 17227.5 2200 17000 1767.35546875 17000 1240 c 0
 17000 712.64453125 17280.5917969 280 17680 280 c 0
 18023.1679688 280 18311.4921875 575.583007812 18360 1000 c 1
 18680 920 l 1
 18573.0361328 398.53515625 18314.1357422 -40 17600 -40 c 0
 16745.8837891 -40 16280 600 16280 1240 c 0
 16280 1880 16745.8837891 2520 17600 2520 c 0
18040.0039062 1720 m 0
 18040.0039062 1896.73144531 18183.2724609 2040 18360.0039062 2040 c 0
 18536.7353516 2040 18680.0039062 1896.73144531 18680.0039062 1720 c 0
 18680.0039062 1543.26855469 18536.7353516 1400 18360.0039062 1400 c 0
 18183.2724609 1400 18040.0039062 1543.26855469 18040.0039062 1720 c 0
17745.5556641 1680 m 1
 17659.8115234 1359.99902344 l 1
 16074.2558594 1360.00097656 l 1
 16160 1680.00195312 l 1
 17745.5556641 1680 l 1
17616.9404297 1200.00097656 m 1
 17531.1962891 880 l 1
 16074.2558594 880.001953125 l 1
 16160 1200.00292969 l 1
 17616.9404297 1200.00097656 l 1
19240 160 m 1
 19200 0 l 1
 19040 320 l 1
 19280 480 19400 640 19400 880 c 0
 19400 1200 19281.4482422 1360 19280 1720 c 0
 19278.0195312 2211.10253906 19680 2520 20240 2520 c 0
 20600 2520 21120 2301.82226562 21120 1840 c 1
 20800 1840 l 1
 20800 2080 20600 2200 20360 2200 c 0
 20160 2200 19920 2040 19920 1720 c 0
 19920 1520 19960 1400.171875 19960 1240 c 0
 19960 840 19600 360 19240 160 c 1
20480 1840 m 0
 20480 2016.73144531 20623.2685547 2160 20800 2160 c 0
 20976.7314453 2160 21120 2016.73144531 21120 1840 c 0
 21120 1663.26855469 20976.7314453 1520 20800 1520 c 0
 20623.2685547 1520 20480 1663.26855469 20480 1840 c 0
19120 240 m 0
 19543.4277344 577.930664062 19880 640 20160 640 c 0
 20440 640 20560 480 20680 480 c 0
 20840 480 20880 501.8828125 20880 800 c 1
 21200 800 l 1
 21200 200 21120 0 20680 0 c 0
 20280 0 20240 200 19960 200 c 0
 19680 200 19418.7158203 150.966796875 19200 0 c 1024
20320 1680 m 1
 20234.2558594 1359.99902344 l 1
 19000 1360.00097656 l 1
 19085.7441406 1680.00195312 l 1
 20320 1680 l 1
20320 1200.00097656 m 1
 20234.2558594 880 l 1
 19000 880.001953125 l 1
 19085.7441406 1200.00292969 l 1
 20320 1200.00097656 l 1
21345.4521484 2480 m 1
 22625.4521484 2480 l 1
 22625.4521484 2160 l 1
 21345.4521484 2160 l 1
 21345.4521484 2480 l 1
22945.4521484 2480 m 1
 24025.4521484 2480 l 1
 24025.4521484 2160 l 1
 22945.4521484 2160 l 1
 22945.4521484 2480 l 1
23486.6542969 2348.21484375 m 1
 23745.4501953 2160 l 1
 22880.2822266 970.39453125 l 1
 22621.4863281 1158.609375 l 1
 23486.6542969 2348.21484375 l 1
22400 1040 m 1
 21585.4521484 2160 l 1
 22376.8115234 2160 l 1
 22917.5839844 1416.4296875 l 1
 22400 1040 l 1
22341.4882812 1320 m 1
 22981.4882812 1320 l 1
 22981.4882812 320 l 1
 23301.4882812 320 l 1
 23301.4882812 0 l 1
 22021.4882812 0 l 1
 22021.4882812 320 l 1
 22341.4882812 320 l 1
 22341.4882812 1320 l 1
23520 1320 m 1
 23434.2558594 999.999023438 l 1
 21760 1000.00097656 l 1
 21845.7441406 1320.00195312 l 1
 23520 1320 l 1
23520 840.000976562 m 1
 23434.2558594 520 l 1
 21760 520.001953125 l 1
 21845.7441406 840.002929688 l 1
 23520 840.000976562 l 1
EndSplineSet
EndChar

StartChar: dollar
Encoding: 36 36 4
Width: 2280
VWidth: 0
Flags: HW
LayerCount: 2
Fore
SplineSet
840 1920 m 4
 840 1321.78417969 2112 1553.953125 2120 720 c 4
 2124.22363281 279.850585938 1720 -40 1160 -40 c 4
 800 -40 160 131.478515625 160 640 c 5
 480 640 l 5
 480 400 720 280 1040 280 c 4
 1320 280 1480 360 1480 560 c 4
 1480 1158.21386719 208 926.045898438 200 1760 c 4
 195.776367188 2200.14941406 560 2520 1120 2520 c 4
 1480 2520 2080 2348.52148438 2080 1840 c 5
 1760 1840 l 5
 1760 2080 1560 2200 1240 2200 c 4
 960 2200 840 2120 840 1920 c 4
800 640 m 4
 800 463.268554688 656.731445312 320 480 320 c 4
 303.268554688 320 160 463.268554688 160 640 c 4
 160 816.731445312 303.268554688 960 480 960 c 4
 656.731445312 960 800 816.731445312 800 640 c 4
1440 1840 m 4
 1440 2016.73144531 1583.26855469 2160 1760 2160 c 4
 1936.73144531 2160 2080 2016.73144531 2080 1840 c 4
 2080 1663.26855469 1936.73144531 1520 1760 1520 c 4
 1583.26855469 1520 1440 1663.26855469 1440 1840 c 4
1000 2640 m 5
 1320 2640 l 5
 1320 -160 l 5
 1000 -160 l 5
 1000 2640 l 5
EndSplineSet
EndChar

StartChar: percent
Encoding: 37 37 5
Width: 3374
VWidth: 0
Flags: HW
LayerCount: 2
Back
SplineSet
2218.45214844 2480 m 5
 2587.95214844 2480 l 5
 1156.12402344 0 l 5
 786.624023438 0 l 5
 2218.45214844 2480 l 5
EndSplineSet
Fore
SplineSet
840 2520 m 0
 1200 2519.99804688 1520 2350 1520 1840 c 0
 1520 1330 1200 1160.00195312 840 1160 c 0
 480 1160.00195312 160 1330 160 1840 c 0
 160 2350 480 2519.99804688 840 2520 c 0
840 2200 m 0
 720 2200 640 2140 640 1840 c 0
 640 1540 720 1480 840 1480 c 0
 960 1480 1040 1540 1040 1840 c 0
 1040 2140 960 2200 840 2200 c 0
2534.58007812 1320 m 0
 2894.58007812 1319.99804688 3214.58007812 1150 3214.58007812 640 c 0
 3214.58007812 130 2894.58007812 -39.998046875 2534.58007812 -40 c 0
 2174.58007812 -39.998046875 1854.58007812 130 1854.58007812 640 c 0
 1854.58007812 1150 2174.58007812 1319.99804688 2534.58007812 1320 c 0
2534.58007812 1000 m 0
 2414.58007812 1000 2334.58007812 940 2334.58007812 640 c 0
 2334.58007812 340 2414.58007812 280 2534.58007812 280 c 0
 2654.58007812 280 2734.58007812 340 2734.58007812 640 c 0
 2734.58007812 940 2654.58007812 1000 2534.58007812 1000 c 0
EndSplineSet
Refer: 15 47 S 1 0 0 1 707 0 2
EndChar

StartChar: ampersand
Encoding: 38 38 6
Width: 2936
VWidth: 0
Flags: HW
LayerCount: 2
Fore
SplineSet
1120 1920 m 4
 1128.65625 1639.98730469 1306.30566406 1354.78027344 1560 1080 c 4
 1849.91210938 765.9921875 2109.33984375 480 2280 480 c 4
 2338.68359375 480 2360 520 2360 720 c 5
 2680 720 l 5
 2680 560 l 6
 2680 287.497070312 2666.55175781 235.26953125 2600 120 c 4
 2530.71582031 0 2377.05859375 -44.0068359375 2200 -40 c 4
 1823.76757812 -31.4853515625 1473.32910156 322.79296875 1120 720 c 4
 759.59375 1125.16210938 560 1576.62890625 560 1920 c 4
 560 2240 656 2520 1176 2520 c 4
 1656 2520 1840 2360 1840 1960 c 5
 1360 2000 l 5
 1360 2160 1320 2200 1240 2200 c 4
 1160 2200 1113.8203125 2119.90429688 1120 1920 c 4
2120 1840 m 4
 2120 2016.73144531 2263.26855469 2160 2440 2160 c 4
 2616.73144531 2160 2760 2016.73144531 2760 1840 c 4
 2760 1663.26855469 2616.73144531 1520 2440 1520 c 4
 2263.26855469 1520 2120 1663.26855469 2120 1840 c 4
1360 2000 m 5
 1840 1960 l 5
 1840 1720 1642.94824219 1555.48730469 1400 1400 c 4
 1309.45800781 1342.05371094 1004.85253906 1188.28417969 920 1160 c 4
 859.392578125 1139.79785156 800 1081.78808594 800 880 c 4
 800 600 991.564453125 320 1280 320 c 4
 1403.99609375 320 1571.33203125 379.10546875 1660.828125 480 c 4
 1744.20800781 573.997070312 2056.23242188 446.051757812 1880 252.1953125 c 4
 1724.68847656 81.3486328125 1447.88769531 -40 1120 -40 c 4
 420.059570312 -40 160 320 160 800 c 4
 160 1160 400 1420 640 1480 c 4
 960 1560 1058.20800781 1654.80273438 1200 1720 c 4
 1325.89355469 1777.88671875 1360 1880 1360 2000 c 5
2717.12792969 2000 m 5
 2769.87988281 1908.63183594 2776 1807.36035156 2776 1708.39355469 c 4
 2776 1460.75 2553.16015625 1227.53417969 2240 1200 c 5
 2360 1040 2360 640 2120 480 c 5
 1800 680 l 5
 1960 760 2040 1120 1720 1200 c 5
 1720 1520 l 5
 2160 1520 l 6
 2370.40820312 1520 2532.37597656 1680 2440 1840 c 5
 2717.12792969 2000 l 5
EndSplineSet
EndChar

StartChar: quotesingle
Encoding: 39 39 7
Width: 880
VWidth: 0
Flags: HW
LayerCount: 2
Fore
SplineSet
440 2560 m 4
 594.639648438 2560 720 2434.63964844 720 2280 c 4
 720 2007.55078125 640 1600 560 1280 c 5
 320 1280 l 5
 240 1600 160 2007.55078125 160 2280 c 4
 160 2434.63964844 285.360351562 2560 440 2560 c 4
EndSplineSet
EndChar

StartChar: parenleft
Encoding: 40 40 8
Width: 1479
VWidth: 0
Flags: HW
LayerCount: 2
Fore
SplineSet
1319.9921875 -480 m 1
 1319.9921875 -800 l 1
 559.9921875 -800 160 144.647460938 160 920 c 0
 160 1695.35253906 559.9921875 2640 1319.9921875 2640 c 1
 1319.9921875 2320 l 1
 1039.9921875 2323.76464844 840 1649.02050781 840 920 c 0
 840 190.979492188 1039.9921875 -480 1319.9921875 -480 c 1
EndSplineSet
EndChar

StartChar: asterisk
Encoding: 42 42 10
Width: 4096
VWidth: 0
Flags: HW
LayerCount: 2
Fore
SplineSet
14760 1892.85449219 m 0
 15201.5996094 1892.85449219 15560 1534.45507812 15560 1092.85449219 c 0
 15560 651.254882812 15201.5996094 292.854492188 14760 292.854492188 c 0
 14318.4003906 292.854492188 13960 651.254882812 13960 1092.85449219 c 0
 13960 1534.45507812 14318.4003906 1892.85449219 14760 1892.85449219 c 0
14760 1572.85449219 m 0
 14495.0400391 1572.85449219 14280 1357.81445312 14280 1092.85449219 c 0
 14280 827.89453125 14495.0400391 612.854492188 14760 612.854492188 c 0
 15024.9599609 612.854492188 15240 827.89453125 15240 1092.85449219 c 0
 15240 1357.81445312 15024.9599609 1572.85449219 14760 1572.85449219 c 0
2000 2520 m 0
 2432.98046875 2520 2800 2293.6796875 2800 1840 c 1
 2480 1840 l 1
 2357.54003906 2007.36132812 l 1
 2357.54003906 2135.64160156 2216.31152344 2200 2120 2200 c 0
 1960 2200 1880 2120 1880 1920 c 0
 1880 1321.78417969 2832 1553.953125 2840 720 c 0
 2844.22363281 279.850585938 2360 -40 1800 -40 c 0
 720 -40 0 131.478515625 0 640 c 1
 320 640 l 1
 320 360 960 280 1680 280 c 0
 1960 280 2200 360 2200 560 c 0
 2200 1158.21386719 1248 926.045898438 1240 1760 c 0
 1235.77636719 2200.14941406 1560 2520 2000 2520 c 0
2160 1840 m 0
 2160 2016.73144531 2303.26855469 2160 2480 2160 c 0
 2656.73144531 2160 2800 2016.73144531 2800 1840 c 0
 2800 1663.26855469 2656.73144531 1520 2480 1520 c 0
 2303.26855469 1520 2160 1663.26855469 2160 1840 c 0
392 1080 m 0
 636.66015625 1080 689.024414062 962.0546875 720 800 c 1
 640 800 l 1
 787.368164062 800 l 1
 796.904296875 750.096679688 798.31640625 696.151367188 792 640 c 2
 720 0 l 1
 400 0 l 1
 472 640 l 2
 481.068359375 720.594726562 440.971679688 760 392 760 c 0
 352 760 320 720 320 640 c 1
 0 640 l 1
 0 920 192 1080 392 1080 c 0
920 1080 m 0
 1134.07617188 1080 1183.93164062 962.055664062 1200 800 c 1
 1160 800 l 1
 1274.69628906 800 l 1
 1279.64355469 750.096679688 1278.31640625 696.151367188 1272 640 c 2
 1200 0 l 1
 880 0 l 1
 952 640 l 2
 961.068359375 720.594726562 920.971679688 760 872 760 c 0
 832 760 792 720 792 640 c 1
 640 760 l 1
 640 960 800 1080 920 1080 c 0
1440 1080 m 0
 1720 1080 1778.83203125 878.49609375 1752 640 c 2
 1680 0 l 1
 1360 0 l 1
 1432 640 l 2
 1441.06835938 720.594726562 1400.97167969 760 1352 760 c 0
 1312 760 1272 720 1272 640 c 1
 1120 760 l 1
 1120 960 1320 1080 1440 1080 c 0
5440 2640 m 0
 5640 2640 5767.24414062 2612.02539062 5840 2560 c 1
 5752 2288 l 1
 5728.59570312 2311.24414062 5657.06835938 2320 5600 2320 c 0
 5507.01171875 2320 5400 2200 5400 2080 c 2
 5400 1320 l 2
 5400 1040 5320 955.025390625 5040 880 c 1
 5040 760 l 1
 4520 760 l 1
 4520 1080 l 1
 4640 1080 l 2
 4774.4921875 1080 4840 1176.171875 4840 1280 c 2
 4840 2040 l 2
 4840 2400 5120 2640 5440 2640 c 0
5440 -800 m 0
 5120 -800 4840 -560 4840 -200 c 2
 4840 560 l 2
 4840 663.828125 4774.4921875 760 4640 760 c 2
 4520 760 l 1
 4520 1080 l 1
 5040 1080 l 1
 5040 960 l 1
 5320 884.974609375 5400 800 5400 520 c 2
 5400 -240 l 2
 5400 -360 5507.01171875 -480 5600 -480 c 0
 5657.06835938 -480 5728.59570312 -471.244140625 5752 -448 c 1
 5840 -720 l 1
 5767.24414062 -772.025390625 5640 -800 5440 -800 c 0
6120 2640 m 1
 7240 2640 l 1
 7240 2320 l 1
 6680 2320 l 1
 6680 -480 l 1
 7240 -480 l 1
 7240 -800 l 1
 6120 -800 l 1
 6120 2640 l 1
8680 2376 m 1
 8680 2056 l 1
 8680 1145.7265625 l 1
 8600 1185.7265625 l 1
 8600 1465.7265625 8360 1730.74121094 8360 2056 c 0
 8360 2232.73144531 8503.26757812 2376 8680 2376 c 1
8680 2376 m 1
 8856.73242188 2376 9000 2232.73144531 9000 2056 c 0
 9000 1730.74121094 8760 1465.7265625 8760 1185.7265625 c 1
 8680 1145.7265625 l 1
 8680 2056 l 1
 8680 2376 l 1
9850.05957031 1525.90039062 m 1
 9545.71972656 1427.01464844 l 1
 8680 1145.72460938 l 1
 8693.3203125 1234.16992188 l 1
 8959.61621094 1320.69433594 9137.49609375 1630.84179688 9446.8359375 1731.35253906 c 0
 9614.91601562 1785.96582031 9795.44433594 1693.98242188 9850.05957031 1525.90039062 c 1
9850.05957031 1525.90136719 m 1
 9904.671875 1357.81933594 9812.68847656 1177.29101562 9644.60839844 1122.67773438 c 0
 9335.26757812 1022.16699219 9009.05957031 1168.52636719 8742.76367188 1082.00195312 c 1
 8680 1145.72558594 l 1
 9545.71972656 1427.015625 l 1
 9850.05957031 1525.90136719 l 1
9403.13574219 150.413085938 m 1
 9215.04394531 409.298828125 l 1
 8680 1145.72558594 l 1
 8768.23242188 1160.38769531 l 1
 8932.81152344 933.862304688 9282.74804688 860.530273438 9473.92773438 597.389648438 c 0
 9577.80761719 454.411132812 9546.11230469 254.293945312 9403.13574219 150.413085938 c 1
9403.13574219 150.415039062 m 1
 9260.15625 46.5341796875 9060.03613281 78.23046875 8956.15625 221.208984375 c 0
 8764.97558594 484.348632812 8803.36816406 839.818359375 8638.78808594 1066.34375 c 1
 8679.99609375 1145.7265625 l 1
 9215.04394531 409.299804688 l 1
 9403.13574219 150.415039062 l 1
7956.86425781 150.413085938 m 1
 8144.95605469 409.298828125 l 1
 8680 1145.72558594 l 1
 8721.21191406 1066.34179688 l 1
 8556.63183594 839.817382812 8595.02441406 484.34765625 8403.83984375 221.20703125 c 0
 8299.96386719 78.228515625 8099.84375 46.533203125 7956.86425781 150.413085938 c 1
7956.86425781 150.413085938 m 1
 7813.88769531 254.293945312 7782.19238281 454.411132812 7886.07226562 597.389648438 c 0
 8077.25195312 860.530273438 8427.18847656 933.862304688 8591.76757812 1160.38769531 c 1
 8680 1145.72558594 l 1
 8144.95605469 409.298828125 l 1
 7956.86425781 150.413085938 l 1
7509.94042969 1525.90039062 m 1
 7814.28027344 1427.01464844 l 1
 8680 1145.72460938 l 1
 8617.23632812 1082.00097656 l 1
 8350.94042969 1168.52539062 8024.73242188 1022.16601562 7715.39160156 1122.67675781 c 0
 7547.31152344 1177.2890625 7455.328125 1357.81835938 7509.94042969 1525.90039062 c 1
7509.94042969 1525.8984375 m 1
 7564.55175781 1693.98046875 7745.08398438 1785.96484375 7913.1640625 1731.3515625 c 0
 8222.50390625 1630.84082031 8400.38378906 1320.69335938 8666.6796875 1234.16894531 c 1
 8680 1145.72363281 l 1
 7814.28027344 1427.01367188 l 1
 7509.94042969 1525.8984375 l 1
15624 2224 m 0
 15756.5478516 2224 15864 2116.54785156 15864 1984 c 0
 15864 1917.72558594 15837.1357422 1857.72851562 15793.7041016 1814.296875 c 0
 15632.8320312 1653.421875 15511.1240234 1757.99023438 15313.1318359 1560 c 1
 15200 1560 l 1
 15200 1673.1328125 l 1
 15397.9921875 1871.12304688 15293.4199219 1992.828125 15454.2958984 2153.703125 c 0
 15497.7236328 2197.13476562 15557.7236328 2224 15624 2224 c 0
15864 256 m 0
 15864 123.452148438 15756.5478516 16 15624 16 c 0
 15557.7236328 16 15497.7275391 42.8642578125 15454.2958984 86.2958984375 c 0
 15293.4199219 247.16796875 15397.9882812 368.875976562 15200 566.868164062 c 1
 15200 680 l 1
 15313.1318359 680 l 1
 15511.1240234 482.0078125 15632.828125 586.580078125 15793.7041016 425.704101562 c 0
 15837.1357422 382.276367188 15864 322.276367188 15864 256 c 0
13896 16 m 0
 13763.4521484 16 13656 123.452148438 13656 256 c 0
 13656 322.274414062 13682.8642578 382.271484375 13726.2958984 425.703125 c 0
 13887.1679688 586.578125 14008.8759766 482.009765625 14206.8681641 680 c 1
 14320 680 l 1
 14320 566.8671875 l 1
 14122.0078125 368.876953125 14226.5800781 247.171875 14065.7041016 86.296875 c 0
 14022.2763672 42.865234375 13962.2763672 16 13896 16 c 0
13656 1984 m 0
 13656 2116.54785156 13763.4521484 2224 13896 2224 c 0
 13962.2763672 2224 14022.2724609 2197.13574219 14065.7041016 2153.70410156 c 0
 14226.5800781 1992.83203125 14122.0117188 1871.12402344 14320 1673.13183594 c 1
 14320 1560 l 1
 14206.8681641 1560 l 1
 14008.8759766 1757.9921875 13887.171875 1653.41992188 13726.2958984 1814.29589844 c 0
 13682.8642578 1857.72363281 13656 1917.72363281 13656 1984 c 0
EndSplineSet
EndChar

StartChar: plus
Encoding: 43 43 11
Width: 4096
VWidth: 0
Flags: H
LayerCount: 2
Fore
SplineSet
4560 1600 m 1
 4960 1600 l 1
 4960 320 l 1
 5280 320 l 1
 5280 0 l 1
 4079.99121094 0 l 1
 4079.99121094 320 l 1
 4400 320 l 1
 4400 960 l 1
 4079.99121094 960 l 1
 4079.99121094 1280 l 1
 4159.99121094 1280 l 2
 4320 1280 4400 1322.87207031 4560 1600 c 1
5840 1120 m 0
 5840 1274.63964844 5965.36035156 1400 6120 1400 c 0
 6274.63964844 1400 6400 1274.63964844 6400 1120 c 0
 6400 965.360351562 6274.63964844 840 6120 840 c 0
 5965.36035156 840 5840 965.360351562 5840 1120 c 0
5840 1120 m 0
 5840 1400 6160 1640 6520 1640 c 0
 7219.94140625 1640 7440 1520 7440 1160 c 0
 7440 720 6360 480 6360 320 c 1
 6146.984375 156.830078125 5840 0 5840 0 c 1
 5840 560 6240 760 6600 920 c 0
 6731.79199219 978.57421875 6880 1080 6880 1160 c 0
 6880 1280 6808.43554688 1320 6520 1320 c 0
 6280.48730469 1320 6091.42871094 1120 6160 1000 c 1024
7920 480 m 0
 7920 634.639648438 8045.36035156 760 8200 760 c 0
 8354.63964844 760 8480 634.639648438 8480 480 c 0
 8480 325.360351562 8354.63964844 200 8200 200 c 0
 8045.36035156 200 7920 325.360351562 7920 480 c 0
7920 480 m 0
 7920 200 8100.05859375 -40 8800 -40 c 0
 9400 -40 9600 160 9600 480 c 0
 9600 720 9479.99121094 840 8999.99121094 840 c 2
 8600 840 l 1
 8600 640 l 1
 8800 640 l 2
 9000 640 9040 600 9040 520 c 0
 9040 320 8920 280 8719.99121094 280 c 0
 8480.47851562 280 8320 330.717773438 8360 480 c 1024
10719.9912109 1600 m 1
 11279.9912109 1600 l 1
 11120 1200 10800 880 10520 720 c 1
 10999.9912109 720 l 1
 10999.9912109 1000 l 1
 11120 1080 11200 1200 11240 1280 c 1
 11480 1280 l 1
 11480 720 l 1
 11680 720 l 1
 11680 400 l 1
 11480 400 l 1
 11480 320 l 1
 11680 320 l 1
 11680 0 l 1
 10640 0 l 1
 10640 320 l 1
 10999.9912109 320 l 1
 10999.9912109 400 l 1
 10079.9912109 400 l 1
 10079.9912109 720 l 1
 10360 960 10600 1280 10719.9912109 1600 c 1
5840 0 m 1
 7440 0 l 1
 7440 640 l 1
 7080 640 l 1
 7080 400 l 1
 6320 400 l 1025
7960 1120 m 0
 7960 1274.63964844 8085.36035156 1400 8240 1400 c 0
 8394.63964844 1400 8520 1274.63964844 8520 1120 c 0
 8520 965.360351562 8394.63964844 840 8240 840 c 0
 8085.36035156 840 7960 965.360351562 7960 1120 c 0
7960 1120 m 0
 7960 1400 8160 1640 8800 1640 c 0
 9360 1640 9560 1400 9560 1160 c 0
 9560 920 9280 800 8999.99121094 800 c 2
 8600 800 l 1
 8600 960 l 1
 8800 960 l 2
 9000 960 9000 1040 9000 1120 c 0
 9000 1280 8920 1320 8719.99121094 1320 c 0
 8480.47851562 1320 8400 1269.28222656 8440 1120 c 1024
13040 2240 m 0
 13040 2394.63964844 13165.3603516 2520 13320 2520 c 0
 13474.6396484 2520 13600 2394.63964844 13600 2240 c 0
 13600 2085.36035156 13474.6396484 1960 13320 1960 c 0
 13165.3603516 1960 13040 2085.36035156 13040 2240 c 0
13120 -280 m 0
 13120 -70.599609375 12843.6035156 -55.5732421875 12584.7744141 24.4189453125 c 0
 12160 155.696289062 11840 440 11840 880 c 0
 11840 1280 12080 1640 12560 1800 c 1
 12760 1640 l 1
 12560 1540 12400 1259.75585938 12400 1000 c 0
 12400 680 12520.6953125 489.794921875 12935.5849609 375.876953125 c 0
 13240.2275391 292.229492188 13640 221.974609375 13640 -200 c 0
 13640 -680 13240 -800 12762.4121094 -800 c 0
 12360 -800 12080 -640 12080 -360 c 1
 12080 -360 l 1
 12560 -360 l 1
 12600 -429.284179688 12640 -480 12800 -480 c 0
 13080 -480 13120 -410.896484375 13120 -280 c 0
13160 80 m 0
 13480 200 13880 449.083007812 13880 1080 c 0
 13880 1480 13491.4775391 1784.74316406 12935.5849609 1935.87695312 c 0
 12749.1767578 1986.55664062 12600 2048.22070312 12600 2200 c 0
 12600 2330.89648438 12708.0400391 2360 12880 2360 c 0
 13040 2360 13080 2309.28417969 13120 2240 c 1
 13600 2240 l 1
 13600 2440 13360 2640 12917.5878906 2640 c 0
 12520 2640 12120 2560 12120 2080 c 0
 12120 1755.98046875 12346.7041016 1648.65722656 12584.7744141 1584.41894531 c 0
 13120 1440 13320 1160 13320 960 c 0
 13320 720 13200 400 12960 280 c 1024
15119.9912109 2520 m 0
 15583.9140625 2520.00195312 15960 2186.56445312 15960 1677.14257812 c 0
 15960 1167.72070312 15583.9140625 834.284179688 15119.9912109 834.286132812 c 0
 14656.0732422 834.288085938 14279.9912109 1167.72460938 14279.9912109 1677.14257812 c 0
 14279.9912109 2186.56152344 14656.0732422 2519.99804688 15119.9912109 2520 c 0
15119.9921875 2200 m 0
 14945.4667969 2201.63867188 14839.9912109 2073.02050781 14839.9912109 1677.14257812 c 0
 14839.9912109 1281.265625 14945.4667969 1154.28710938 15119.9921875 1154.28613281 c 0
 15294.5185547 1154.28515625 15400 1288.734375 15400 1677.14257812 c 0
 15400 2065.55078125 15294.5185547 2198.36132812 15119.9921875 2200 c 0
16274.2851562 2120 m 0
 16274.2851562 2276.21777344 16400.9248047 2402.85742188 16557.1425781 2402.85742188 c 0
 16713.3603516 2402.85742188 16840 2276.21777344 16840 2120 c 0
 16840 1963.78222656 16713.3603516 1837.14257812 16557.1425781 1837.14257812 c 0
 16400.9248047 1837.14257812 16274.2851562 1963.78222656 16274.2851562 2120 c 0
16720 1761.140625 m 0
 17065.265625 1761.140625 17218.0351562 1670.32910156 17351.2011719 1459.45996094 c 1
 17274.2363281 1338.78125 l 1
 17351.2011719 1218.109375 l 1
 17201.7939453 916.043945312 17065.265625 840 16720 840 c 0
 16400 840 16160 1000 16160 1338.78125 c 0
 16160 1640 16400 1761.140625 16720 1761.140625 c 0
16971.703125 1515.77539062 m 0
 16801.3720703 1515.77539062 16720 1459.45507812 16720 1338.78125 c 0
 16720 1200.44042969 16783.7050781 1121.57324219 16952.2695312 1121.57324219 c 0
 17077.7998047 1121.57324219 17219.1435547 1245.64648438 17267.5136719 1337.921875 c 1
 17207.1689453 1423.25195312 17075.7578125 1515.77539062 16971.703125 1515.77539062 c 0
17760 1845.12304688 m 2
 17760 1200 l 1
 17840 1200 l 1
 17840 880 l 1
 17377.1425781 880 l 1
 17240 1200 l 1
 17240 1903.68652344 l 2
 17240 2148.57128906 17172.8037109 2200 16960 2200 c 0
 16868.5712891 2200 16810.4560547 2177.03613281 16800 2160 c 2
 16557.1425781 2040 l 1
 16357.1318359 2320.01074219 l 1
 16482.1621094 2445.04101562 16659.5800781 2520 17048.3642578 2520 c 0
 17494.8759766 2520 17760 2250.70507812 17760 1845.12304688 c 2
2360 2240 m 1
 2680 2240 l 1
 2680 1640 l 1
 3280 1640 l 1
 3280 1320 l 1
 2680 1320 l 1
 2680 720 l 1
 2360 720 l 1
 2360 1320 l 1
 1760 1320 l 1
 1760 1640 l 1
 2360 1640 l 1
 2360 2240 l 1
1760 560 m 1
 3280 560 l 1
 3280 240 l 1
 1760 240 l 1
 1760 560 l 1
600 2000 m 1
 920 2000 l 1
 920 1400 l 1
 1520 1400 l 1
 1520 1080 l 1
 920 1080 l 1
 920 480 l 1
 600 480 l 1
 600 1080 l 1
 0 1080 l 1
 0 1400 l 1
 600 1400 l 1
 600 2000 l 1
-320 1840 m 1
 132.546875 1840 l 1
 -1707.453125 0 l 1
 -2160 0 l 1
 -320 1840 l 1
12080 -360 m 0
 12080 -205.360351562 12205.3603516 -80 12360 -80 c 0
 12514.6396484 -80 12640 -205.360351562 12640 -360 c 0
 12640 -514.639648438 12514.6396484 -640 12360 -640 c 0
 12205.3603516 -640 12080 -514.639648438 12080 -360 c 0
EndSplineSet
EndChar

StartChar: comma
Encoding: 44 44 12
Width: 960
VWidth: 0
Flags: HW
LayerCount: 2
Fore
SplineSet
480 620 m 4
 624.76953125 619.825195312 751.404296875 522.482421875 788.9296875 382.71875 c 4
 802.588867188 331.84375 809.038085938 280.391601562 809.038085938 228.887695312 c 4
 809.038085938 -107.057617188 534.66796875 -445.223632812 197.3046875 -640 c 5
 52.125 -494.8203125 l 5
 349.12890625 -256.735351562 441.809570312 -150.348632812 445.5859375 -17.765625 c 5
 283.266601562 -0.20703125 160.192382812 136.733398438 160 300 c 4
 160 476.731445312 303.268554688 620 480 620 c 4
EndSplineSet
EndChar

StartChar: hyphen
Encoding: 45 45 13
Width: 1400
VWidth: 0
Flags: HW
LayerCount: 2
Fore
SplineSet
160 960 m 5
 160 1280 l 5
 1240 1280 l 5
 1240 960 l 5
 160 960 l 5
EndSplineSet
EndChar

StartChar: period
Encoding: 46 46 14
Width: 960
VWidth: 0
Flags: HW
LayerCount: 2
Fore
SplineSet
160 300 m 4
 160 476.73046875 303.268554688 620 480 620 c 4
 656.731445312 620 800 476.73046875 800 300 c 4
 800 123.268554688 656.731445312 -20 480 -20 c 4
 303.268554688 -20 160 123.268554688 160 300 c 4
EndSplineSet
EndChar

StartChar: slash
Encoding: 47 47 15
Width: 2121
VWidth: 0
Flags: HW
LayerCount: 2
Fore
SplineSet
1592 2480 m 5
 1961 2480 l 5
 530 0 l 5
 160 0 l 5
 1592 2480 l 5
EndSplineSet
EndChar

StartChar: zero
Encoding: 48 48 16
Width: 2400
VWidth: 0
Flags: HW
LayerCount: 2
Fore
SplineSet
1200 2520 m 3
 1774 2520 2240 2012 2240 1237 c 3
 2240 462 1774 -46 1200 -46 c 3
 626 -46 160 462 160 1237 c 3
 160 2012 626 2520 1200 2520 c 3
1200 2200 m 3
 975.979911615 2200 840 1966 840 1237 c 3
 840 508 976 274 1200 274 c 3
 1424 274 1560 522 1560 1237 c 3
 1560 1952 1424.02008838 2200 1200 2200 c 3
EndSplineSet
EndChar

StartChar: one
Encoding: 49 49 17
Width: 2400
VWidth: 0
Flags: HW
LayerCount: 2
Fore
SplineSet
1080 2480 m 1
 1480 2480 l 1
 1480 320 l 1
 1880 320 l 1
 1880 0 l 1
 520 0 l 1
 520 320 l 1
 920 320 l 1
 920 1840 l 1
 520 1840 l 1
 520 2160 l 1
 600 2160 l 2
 800 2160 920 2203 1080 2480 c 1
EndSplineSet
EndChar

StartChar: two
Encoding: 50 50 18
Width: 2400
VWidth: 0
Flags: HW
LayerCount: 2
Fore
SplineSet
280 1720 m 3
 280 1897 423 2040 600 2040 c 3
 777 2040 920 1897 920 1720 c 0
 920 1543 777 1400 600 1400 c 3
 423 1400 280 1543 280 1720 c 3
323 1560 m 0
 88 1967 460 2520 1160 2520 c 3
 1860 2520 2120 2160 2120 1800 c 3
 2120 1200 1600 1045 1280 800 c 0
 1067 637 939 600 800 360 c 1
 560 133 l 1
 280 0 l 3
 280 520 760 880 1120 1160 c 0
 1345 1335 1440 1558 1440 1760 c 3
 1440 2040 1288 2200 1000 2200 c 3
 760 2200 440 1960 600 1680 c 0
 323 1560 l 0
280 0 m 1
 600 360 l 1
 840 440 l 2
 915 465 999 480 1080 480 c 2
 1600 480 l 6
 1720 480 1760 681 1760 800 c 6
 1760 960 l 5
 2120 960 l 5
 2120 0 l 5
 280 0 l 1
EndSplineSet
EndChar

StartChar: three
Encoding: 51 51 19
Width: 2400
VWidth: 0
Flags: HW
LayerCount: 2
Fore
SplineSet
280 1720 m 4
 280 1897 423 2040 600 2040 c 4
 777 2040 920 1897 920 1720 c 4
 920 1543 777 1400 600 1400 c 4
 423 1400 280 1543 280 1720 c 4
323 1560 m 4
 88 1967 460 2520 1160 2520 c 4
 1860 2520 2080 2160 2080 1800 c 4
 2080 1400 1520 1200 1280 1200 c 5
 920 1400 l 5
 1320 1400 1400 1558 1400 1760 c 4
 1400 2040 1288 2200 1000 2200 c 4
 760 2200 440 1960 600 1680 c 4
 323 1560 l 4
280 760 m 4
 280 937 423 1080 600 1080 c 4
 777 1080 920 937 920 760 c 4
 920 583 777 440 600 440 c 4
 423 440 280 583 280 760 c 4
323 920 m 4
 600 800 l 4
 440 520 760 280 1000 280 c 4
 1288 280 1440 440 1440 720 c 4
 1440 922 1320 1080 920 1080 c 5
 920 1400 l 5
 1280 1264 l 5
 1760 1264 2120 1080 2120 680 c 4
 2120 320 1860 -40 1160 -40 c 4
 460 -40 88 513 323 920 c 4
EndSplineSet
EndChar

StartChar: four
Encoding: 52 52 20
Width: 2400
VWidth: 0
Flags: HW
LayerCount: 2
Fore
SplineSet
860 2480 m 5
 1500 2480 l 5
 1500 1840 1100 1400 540 960 c 5
 1220 960 l 5
 1220 1343 l 5
 1372 1493 1503 1669 1567 1840 c 5
 1860 1840 l 5
 1860 960 l 5
 2180 960 l 5
 2180 640 l 5
 1860 640 l 5
 1860 320 l 5
 2180 320 l 5
 2180 0 l 5
 820 0 l 5
 820 320 l 5
 1220 320 l 5
 1220 640 l 5
 220 640 l 5
 220 960 l 5
 700 1440 820 2040 860 2480 c 5
EndSplineSet
EndChar

StartChar: five
Encoding: 53 53 21
Width: 2400
VWidth: 0
Flags: HW
LayerCount: 2
Fore
SplineSet
294 760 m 0
 294 937 437 1080 614 1080 c 0
 791 1080 934 937 934 760 c 0
 934 583 791 440 614 440 c 0
 437 440 294 583 294 760 c 0
337 920 m 0
 614 800 l 0
 454 520 774 280 1014 280 c 0
 1302 280 1454 440 1454 720 c 0
 1454 1160 1254 1280 654 1200 c 1
 334 1280 l 1
 654 1360 l 1
 1454 1720 2134 1320 2134 680 c 0
 2134 320 1874 -40 1174 -40 c 0
 474 -40 102 513 337 920 c 0
347 1278 m 1
 512 2480 l 1
 815 2438 l 1
 651 1237 l 1
 347 1278 l 1
694 2000 m 0
 512 2480 l 1
 814 2480 l 1
 974 2440 1054 2400 1334 2400 c 0
 1614 2400 1834 2421 2054 2480 c 1
 2094 2360 l 1
 1974 2000 1654 1887 1334 1880 c 0
 1092 1874 854 1902 694 2000 c 0
EndSplineSet
EndChar

StartChar: six
Encoding: 54 54 22
Width: 2400
VWidth: 0
Flags: HW
LayerCount: 2
Fore
SplineSet
817 920 m 1
 760 1240 l 1
 837 1424 1040 1560 1320 1560 c 0
 1824 1560 2200 1225 2200 760 c 0
 2200 400 1900 -40 1200 -40 c 1
 1200 280 l 1
 1488 280 1520 520 1520 800 c 0
 1520 1143 1360 1240 1160 1240 c 0
 1020 1240 880 1102 817 920 c 1
1440 1920 m 0
 1440 2097 1583 2240 1760 2240 c 0
 1937 2240 2080 2097 2080 1920 c 0
 2080 1743 1937 1600 1760 1600 c 0
 1583 1600 1440 1743 1440 1920 c 0
2080 1920 m 1
 1560 2120 l 1
 1546 2160 1520 2200 1320 2200 c 3
 1039.97143003 2200 840 1966 840 1237 c 0
 840 508 976 280 1200 280 c 1
 1200 -40 l 5
 466 -40 160 457 160 1237 c 0
 160 2007 626 2520 1200 2520 c 0
 1800 2520 2080 2280 2080 1920 c 1
EndSplineSet
EndChar

StartChar: seven
Encoding: 55 55 23
Width: 2400
VWidth: 0
Flags: HW
LayerCount: 2
Fore
SplineSet
260 2480 m 5
 2140 2480 l 5
 2140 2160 l 5
 1260 1160 1340 760 1340 0 c 5
 700 0 l 5
 700 788 1003 1351 1692 2040 c 5
 1568 2014 1494 2000 1340 2000 c 6
 780 2000 l 6
 660 2000 620 1799 620 1680 c 6
 620 1520 l 5
 260 1520 l 5
 260 2480 l 5
EndSplineSet
EndChar

StartChar: eight
Encoding: 56 56 24
Width: 2400
VWidth: 0
Flags: HW
LayerCount: 2
Fore
SplineSet
900 1920 m 0
 900 1440 2180 1554.03836842 2180 720 c 3
 2180 239.983333623 1900 -40 1180 -40 c 0
 660 -40 220 91 220 600 c 1
 740 600 l 1
 740 360 940 280 1140 280 c 0
 1420 280 1540 360 1540 560 c 0
 1540 1158 268 926 260 1760 c 0
 256 2200 620 2520 1180 2520 c 0
 1700 2520 2100 2349 2100 1840 c 1
 1620 1840 l 1
 1620 2080 1460 2200 1220 2200 c 0
 1020 2200 900 2120 900 1920 c 0
820 1200 m 0
 980 1080 l 0
 801 901 740 800 740 600 c 1
 220 600 l 1
 220 840 541 1125 820 1200 c 0
1620 1320 m 0
 1364 1424 l 0
 1540 1560 1620 1680 1620 1840 c 1
 2100 1840 l 1
 2100 1600 1820 1377 1620 1320 c 0
EndSplineSet
EndChar

StartChar: colon
Encoding: 58 58 26
Width: 969
VWidth: 0
Flags: HW
LayerCount: 2
Fore
SplineSet
160 1530 m 0
 160 1706.73144531 303.268554688 1850 480 1850 c 0
 656.731445312 1850 800 1706.73144531 800 1530 c 0
 800 1353.26855469 656.731445312 1210 480 1210 c 0
 303.268554688 1210 160 1353.26855469 160 1530 c 0
EndSplineSet
Refer: 14 46 S 1 0 0 1 0 0 2
EndChar

StartChar: semicolon
Encoding: 59 59 27
Width: 969
VWidth: 0
Flags: HW
LayerCount: 2
Fore
SplineSet
160 1530 m 0
 160 1706.73144531 303.268554688 1850 480 1850 c 0
 656.731445312 1850 800 1706.73144531 800 1530 c 0
 800 1353.26855469 656.731445312 1210 480 1210 c 0
 303.268554688 1210 160 1353.26855469 160 1530 c 0
EndSplineSet
Refer: 12 44 S 1 0 0 1 0 0 2
EndChar

StartChar: less
Encoding: 60 60 28
Width: 1840
VWidth: 0
Flags: HW
LayerCount: 2
Fore
SplineSet
1680 1987.14550781 m 5
 1680 1627.14550781 l 5
 920 1339.015625 l 6
 757.784179688 1277.51757812 562.65234375 1228.5859375 320 1208.00683594 c 5
 160 1147.48632812 l 5
 160 1427.14550781 l 5
 1680 1987.14550781 l 5
1680 492.854492188 m 5
 160 1052.85449219 l 5
 160 1332.51367188 l 5
 320 1271.99316406 l 5
 562.65234375 1251.4140625 757.784179688 1202.48242188 920 1140.984375 c 6
 1680 852.854492188 l 5
 1680 492.854492188 l 5
EndSplineSet
EndChar

StartChar: equal
Encoding: 61 61 29
Width: 1840
VWidth: 0
Flags: HW
LayerCount: 2
Fore
SplineSet
160 1760 m 5
 1680 1760 l 5
 1680 1440 l 5
 160 1440 l 5
 160 1760 l 5
160 1040 m 5
 1680 1040 l 5
 1680 720 l 5
 160 720 l 5
 160 1040 l 5
EndSplineSet
EndChar

StartChar: question
Encoding: 63 63 31
Width: 2080
VWidth: 0
Flags: HW
LayerCount: 2
Fore
SplineSet
160 1840 m 7
 160 2016.73144531 303.268554688 2160 480 2160 c 7
 656.731445312 2160 800 2016.73144531 800 1840 c 7
 800 1663.26855469 656.731445312 1520 480 1520 c 7
 303.268554688 1520 160 1663.26855469 160 1840 c 7
160 1840 m 4
 160 2240 440 2560 1040 2560 c 7
 1640 2560 1920 2320 1920 1840 c 7
 1920 1200 1120 1160 1120 920 c 5
 920 920 l 5
 680 1320 1320 1520 1320 1840 c 7
 1320 2040 1200 2240 920 2240 c 4
 680 2240 480 2120 480 1840 c 4
 160 1840 l 4
720 300 m 4
 720 476.73046875 863.268554688 620 1040 620 c 4
 1216.73144531 620 1360 476.73046875 1360 300 c 4
 1360 123.268554688 1216.73144531 -20 1040 -20 c 4
 863.268554688 -20 720 123.268554688 720 300 c 4
EndSplineSet
EndChar

StartChar: at
Encoding: 64 64 32
Width: 3720
VWidth: 0
Flags: HW
LayerCount: 2
Fore
SplineSet
1587.9375 -40 m 0
 1112.08203125 -40 869.133789062 332.642578125 869.133789062 920.607421875 c 0
 869.133789062 1508.57128906 1206.44726562 1880.34765625 1666.24121094 1880.34765625 c 0
 2059.77636719 1880.34765625 2236.43847656 1637.43164062 2302.69628906 1545.07128906 c 1
 2320 920 l 1
 2275.52636719 907.857421875 l 1
 2255.65039062 1191.80761719 2132.12792969 1508.57128906 1860.95605469 1508.57128906 c 0
 1589.78320312 1508.57128906 1470.52636719 1282.67089844 1470.52636719 913.53515625 c 0
 1470.52636719 544.400390625 1650.83398438 320 1848.17871094 320 c 0
 2045.52441406 320 2160.52734375 484.765625 2278.36621094 744.580078125 c 1
 2285 726 l 5
 2292.6875 579.276367188 l 1
 2260.5625 320.000976562 2063.79394531 -40 1587.9375 -40 c 0
2494.859375 1840 m 1
 2760 1840 l 1
 2760 520 l 2
 2760 445.622070312 2800 320 2915.52636719 320 c 0
 3040 320 3240 520 3240 1120 c 1
 3240 1120 l 1
 3240 1914.0078125 2810.01367188 2320 1960 2320 c 0
 1067.81738281 2320 480 1824.09472656 480 960 c 0
 480 -42.87109375 1011.55078125 -480 1800 -480 c 3
 2114.31152344 -480 2450.71777344 -440 2520 -400 c 1
 2680 -677.127929688 l 1
 2484.11328125 -790.223632812 2200 -800 1800 -800 c 3
 849.08203125 -800 160 -197.12890625 160 960 c 0
 160 2015.90527344 932.182617188 2640 1960 2640 c 0
 2949.98632812 2640 3560 2085.9921875 3560 1120 c 0
 3560 146.736328125 3028.93554688 0 2760 0 c 0
 2360 0 2200 218.725585938 2200 480 c 2
 2200 1520 l 1
 2280 1520 l 1
 2494.859375 1840 l 1
2200 -400 m 0
 2200 -223.268554688 2343.26855469 -80 2520 -80 c 0
 2696.73144531 -80 2840 -223.268554688 2840 -400 c 0
 2840 -576.731445312 2696.73144531 -720 2520 -720 c 0
 2343.26855469 -720 2200 -576.731445312 2200 -400 c 0
EndSplineSet
EndChar
